<?xml version="1.0" encoding="utf-8"?>
<!-- Generator: Adobe Illustrator 17.0.0, SVG Export Plug-In . SVG Version: 6.00 Build 0)  -->
<!DOCTYPE svg PUBLIC "-//W3C//DTD SVG 1.1//EN" "http://www.w3.org/Graphics/SVG/1.1/DTD/svg11.dtd">
<svg version="1.1" id="Layer_1" xmlns="http://www.w3.org/2000/svg" xmlns:xlink="http://www.w3.org/1999/xlink" x="0px" y="0px"
	 width="512px" height="512px" viewBox="0 0 512 512" enable-background="new 0 0 512 512" xml:space="preserve">
<g>
	<path fill="#B7C1BE" d="M506.49,450.391c0,28.702-23.483,52.185-52.185,52.185H109.881c-28.702,0-52.185-23.483-52.185-52.185
		V142.497c0-28.702,23.483-52.185,52.185-52.185h344.424c28.702,0,52.185,23.483,52.185,52.185V450.391z"/>
	<linearGradient id="SVGID_1_" gradientUnits="userSpaceOnUse" x1="107.2945" y1="138.1512" x2="396.761" y2="436.5937">
		<stop  offset="0" style="stop-color:#F3F2F2"/>
		<stop  offset="1" style="stop-color:#EBEAEA"/>
	</linearGradient>
	<path fill="url(#SVGID_1_)" d="M490.834,450.391c0,28.702-23.483,52.185-52.185,52.185H57.696
		c-28.702,0-52.185-23.483-52.185-52.185V116.404c0-28.702,23.483-52.185,52.185-52.185h380.953
		c28.702,0,52.185,23.483,52.185,52.185V450.391z"/>
	<path fill="#B7C1BE" d="M480.397,450.391c0,28.702-23.483,52.185-52.185,52.185H115.099c-28.702,0-52.185-23.483-52.185-52.185
		V142.497c0-28.702,23.483-52.185,52.185-52.185h313.112c28.702,0,52.185,23.483,52.185,52.185V450.391z"/>
	<linearGradient id="SVGID_2_" gradientUnits="userSpaceOnUse" x1="94.1179" y1="124.9706" x2="383.8521" y2="423.689">
		<stop  offset="0" style="stop-color:#F3F2F2"/>
		<stop  offset="1" style="stop-color:#EBEAEA"/>
	</linearGradient>
	<path fill="url(#SVGID_2_)" d="M464.742,450.391c0,28.702-23.483,52.185-52.185,52.185H57.696
		c-28.702,0-52.185-23.483-52.185-52.185V90.311c0-28.702,23.483-52.185,52.185-52.185h354.861
		c28.702,0,52.185,23.483,52.185,52.185V450.391z"/>
	<path fill="#AA2023" d="M47.258,168.589V90.311c0-28.702,39.139-52.185,67.841-52.185h339.205
		c28.702,0,52.185,23.483,52.185,52.185v78.278H47.258z"/>
	<path fill="#E1423E" d="M5.51,168.589V90.311c0-28.702,23.483-52.185,52.185-52.185h354.861c28.702,0,52.185,23.483,52.185,52.185
		v78.278H5.51z"/>
	<g>
		<g>
			<path fill="#3C566D" d="M182.227,403.964h-42.701V262.437H98.348v-30.154l83.879-12.924V403.964z"/>
			<path fill="#3C566D" d="M354.541,332.122h18.627v32.942h-18.627v38.9h-42.829v-38.9h-71.46l-2.533-26.149l73.992-119.053v-0.377
				h42.829V332.122z M275.982,332.122h35.73v-57.012l-0.759-0.255l-3.292,5.219L275.982,332.122z"/>
		</g>
	</g>
	<rect x="5.51" y="158.152" fill="#B5592E" width="459.231" height="10.437"/>
	<rect x="464.742" y="158.152" fill="#994B27" width="41.748" height="10.437"/>
	<g>
		<path fill="#AA2023" d="M370.808,95.53c0,17.292-14.025,31.311-31.311,31.311c-17.297,0-31.311-14.02-31.311-31.311
			s14.014-31.311,31.311-31.311C356.783,64.219,370.808,78.238,370.808,95.53z"/>
		<path opacity="0.4" fill="#7C7B7B" d="M380.165,38.126h-25.023c1.437,1.249,11.548,10.035,15.472,12.919
			c9,6.615,10.631,13.729,10.631,18.51v36.53c0,9.417-5.657,7.451-9.973,6.217c-3.756-1.07-15.238-16.053-19.432-20.482
			l-19.111,8.388c9.79,14.213,20.614,27.861,38.543,32.968c20.736,5.917,36.066-2.701,36.066-21.139v-36.53
			C407.338,61.298,393.532,46.03,380.165,38.126z"/>
		<path fill="#DBDBDA" d="M341.291,108.332c1.631,0.082,3.424-0.127,3.424-0.127c4.495-1.162,7.848-4.118,8.643-8.908
			c1.187-7.109-5.219-11.594-8.643-11.227l0,0c-10.437,0-15.656-6.024-15.656-10.804v-36.53c0-9.423,10.035-10.437,14.351-10.437
			c3.756,0,10.06,1.014,10.06,7.828h20.874c0-16.629-13.006-28.702-30.934-28.702c-20.742,0-35.225,12.878-35.225,31.311v36.53
			c0,15.732,16.074,27.963,30.598,30.72C338.783,107.985,340.659,108.301,341.291,108.332z"/>
	</g>
	<g>
		<path fill="#AA2023" d="M167.285,95.53c0,17.292-14.025,31.311-31.311,31.311c-17.297,0-31.311-14.02-31.311-31.311
			s14.014-31.311,31.311-31.311C153.26,64.219,167.285,78.238,167.285,95.53z"/>
		<path opacity="0.4" fill="#7C7B7B" d="M176.642,38.126h-25.023c1.437,1.249,11.548,10.035,15.472,12.919
			c9,6.615,10.631,13.729,10.631,18.51v36.53c0,9.417-5.657,7.451-9.973,6.217c-3.756-1.07-15.238-16.053-19.432-20.482
			l-19.111,8.388c9.79,14.213,20.614,27.861,38.543,32.968c20.736,5.917,36.066-2.701,36.066-21.139v-36.53
			C203.815,61.298,190.009,46.03,176.642,38.126z"/>
		<path fill="#DBDBDA" d="M137.768,108.332c1.631,0.082,3.424-0.127,3.424-0.127c4.495-1.162,7.848-4.118,8.643-8.908
			c1.187-7.109-5.219-11.594-8.643-11.227l0,0c-10.437,0-15.656-6.024-15.656-10.804v-36.53c0-9.423,10.035-10.437,14.351-10.437
			c3.756,0,10.06,1.014,10.06,7.828h20.874c0-16.629-13.006-28.702-30.934-28.702c-20.742,0-35.225,12.878-35.225,31.311v36.53
			c0,15.732,16.074,27.963,30.598,30.72C135.26,107.985,137.136,108.301,137.768,108.332z"/>
	</g>
	<polygon opacity="0.4" fill="#7C7B7B" points="109.881,387.768 276.874,502.576 130.755,502.576 	"/>
	<path fill="#FFFFFF" d="M5.51,377.331h73.06c28.702,0,52.185,23.483,52.185,52.185v73.06L5.51,377.331z"/>
</g>
</svg>
