<?xml version="1.0" encoding="utf-8"?>
<!-- Generator: Adobe Illustrator 17.0.0, SVG Export Plug-In . SVG Version: 6.00 Build 0)  -->
<!DOCTYPE svg PUBLIC "-//W3C//DTD SVG 1.1//EN" "http://www.w3.org/Graphics/SVG/1.1/DTD/svg11.dtd">
<svg version="1.1" id="Layer_1" xmlns="http://www.w3.org/2000/svg" xmlns:xlink="http://www.w3.org/1999/xlink" x="0px" y="0px"
	 width="512px" height="512px" viewBox="0 0 512 512" enable-background="new 0 0 512 512" xml:space="preserve">
<g>
	<circle fill="#3C566D" cx="256" cy="256" r="251.412"/>
	<linearGradient id="SVGID_1_" gradientUnits="userSpaceOnUse" x1="132.8767" y1="120.3134" x2="370.7484" y2="382.4581">
		<stop  offset="0" style="stop-color:#F7F7F7"/>
		<stop  offset="1" style="stop-color:#EBEAEA"/>
	</linearGradient>
	<path fill="url(#SVGID_1_)" d="M455.035,256c0,109.921-89.114,199.035-199.035,199.035c-109.926,0-199.035-89.114-199.035-199.035
		c0-109.924,89.108-199.035,199.035-199.035C365.921,56.965,455.035,146.076,455.035,256z"/>
	<g>
		<rect x="250.762" y="77.916" fill="#AEB8B6" width="10.476" height="36.664"/>
		<rect x="250.762" y="397.419" fill="#AEB8B6" width="10.476" height="36.664"/>
	</g>
	<path fill="#3C566D" d="M265.258,246.742L150.815,132.299c-5.115-5.115-13.411-5.115-18.516,0c-5.115,5.113-5.115,13.404,0,18.517
		l114.443,114.443c2.552,2.558,5.903,3.836,9.258,3.836c3.345,0,6.701-1.279,9.258-3.836
		C270.373,260.143,270.373,251.854,265.258,246.742z"/>
	<g>
		<rect x="397.419" y="250.762" fill="#AEB8B6" width="36.664" height="10.476"/>
		<rect x="77.916" y="250.762" fill="#AEB8B6" width="36.664" height="10.476"/>
	</g>
	<path fill="#3C566D" d="M255.882,274.214c-7.278,0-14.173-4.368-17.033-11.545c-3.75-9.406,0.833-20.071,10.235-23.82
		l142.289-56.746c9.412-3.749,20.061,0.831,23.816,10.238c3.754,9.404-0.829,20.068-10.23,23.818L262.67,272.905
		C260.44,273.79,258.143,274.214,255.882,274.214z"/>
	<g opacity="0.6">
		<path fill="#7C7B7B" d="M67.441,271.713c0-109.921,89.108-199.035,199.035-199.035c65.768,0,124.059,31.918,160.304,81.09
			C391.987,95.785,328.541,56.965,256,56.965C146.074,56.965,56.965,146.076,56.965,256c0,44.153,14.399,84.929,38.731,117.942
			C77.763,344.06,67.441,309.099,67.441,271.713z"/>
	</g>
	<g>
		<path fill="#FFFFFF" d="M296.153,256c0,22.168-17.974,40.153-40.153,40.153S215.847,278.168,215.847,256
			c0-22.179,17.974-40.153,40.153-40.153S296.153,233.821,296.153,256z"/>
		<path fill="#3C566D" d="M256,306.628c-27.918,0-50.628-22.71-50.628-50.628s22.71-50.628,50.628-50.628
			c27.918,0,50.628,22.71,50.628,50.628S283.918,306.628,256,306.628z M256,226.323c-16.368,0-29.677,13.314-29.677,29.677
			s13.309,29.677,29.677,29.677c16.358,0,29.677-13.314,29.677-29.677S272.358,226.323,256,226.323z"/>
	</g>
	<path fill="#E1423E" d="M272.767,256c0,9.258-7.509,16.767-16.767,16.767c-9.263,0-16.767-7.509-16.767-16.767
		c0-9.258,7.504-16.767,16.767-16.767C265.258,239.233,272.767,246.742,272.767,256z"/>
	<path fill="#E1423E" d="M143.01,380.586c-1.964,0-3.938-0.736-5.463-2.209c-3.12-3.018-3.197-7.995-0.179-11.11l112.985-116.732
		c3.017-3.115,7.989-3.199,11.109-0.179c3.121,3.017,3.197,7.987,0.179,11.107L148.656,378.192
		C147.117,379.788,145.066,380.586,143.01,380.586z"/>
</g>
</svg>
